PathFileType	4	(X/Y/Z)	Kaydara	
DataRate	CameraRate	NumFrames	NumMarkers	Units	OrigDataRate	OrigDataStartFrame	OrigNumFrames	
60.00	60.00	5	74	mm	60.00	1826	201	
Frame#	Time	Z_lasi			Z_rasi			Z_rpsi			Z_lpsi			Z_fneck			Z_bneck			Z_fhead			Z_rhead			Z_lhead			Z_rshld			Z_relbtop			Z_relbext			Z_relblow			Z_rwrext			Z_rwrtop			Z_rwrlow			Z_lshld			Z_lelbext			Z_lelblow			Z_lelbtop			Z_lwrext			Z_lwrtop			Z_lwrlow			Z_rtopleg			Z_ltopleg			Z_rkneefr			Z_rkneebk			Z_rkneeis			Z_lkneefr			Z_lknssbk			Z_lkneeis			Z_rankfr			Z_rankis			Z_rankbk			Z_lankfr			Z_lankbk			Z_lankis			A_lasi			A_rasi			A_rpsi			A_lpsi			A_fneck			A_bneck			A_fhead			A_rhead			A_lhead			A_rshld			A_relbtop			A_relbext			A_relblow			A_rwrext			A_rwrtop			A_rwrlow			A_lshld			A_lelbext			A_lelblow			A_lelbtop			A_lwrext			A_lwrtop			A_lwrlow			A_rtopleg			A_ltopleg			A_rkneefr			A_rkneebk			A_rkneeis			A_lkneefr			A_lknssbk			A_lkneeis			A_rankfr			A_rankis			A_rankbk			A_lankfr			A_lankbk			A_lankis			
		X1	Y1	Z1	X2	Y2	Z2	X3	Y3	Z3	X4	Y4	Z4	X5	Y5	Z5	X6	Y6	Z6	X7	Y7	Z7	X8	Y8	Z8	X9	Y9	Z9	X10	Y10	Z10	X11	Y11	Z11	X12	Y12	Z12	X13	Y13	Z13	X14	Y14	Z14	X15	Y15	Z15	X16	Y16	Z16	X17	Y17	Z17	X18	Y18	Z18	X19	Y19	Z19	X20	Y20	Z20	X21	Y21	Z21	X22	Y22	Z22	X23	Y23	Z23	X24	Y24	Z24	X25	Y25	Z25	X26	Y26	Z26	X27	Y27	Z27	X28	Y28	Z28	X29	Y29	Z29	X30	Y30	Z30	X31	Y31	Z31	X32	Y32	Z32	X33	Y33	Z33	X34	Y34	Z34	X35	Y35	Z35	X36	Y36	Z36	X37	Y37	Z37	X38	Y38	Z38	X39	Y39	Z39	X40	Y40	Z40	X41	Y41	Z41	X42	Y42	Z42	X43	Y43	Z43	X44	Y44	Z44	X45	Y45	Z45	X46	Y46	Z46	X47	Y47	Z47	X48	Y48	Z48	X49	Y49	Z49	X50	Y50	Z50	X51	Y51	Z51	X52	Y52	Z52	X53	Y53	Z53	X54	Y54	Z54	X55	Y55	Z55	X56	Y56	Z56	X57	Y57	Z57	X58	Y58	Z58	X59	Y59	Z59	X60	Y60	Z60	X61	Y61	Z61	X62	Y62	Z62	X63	Y63	Z63	X64	Y64	Z64	X65	Y65	Z65	X66	Y66	Z66	X67	Y67	Z67	X68	Y68	Z68	X69	Y69	Z69	X70	Y70	Z70	X71	Y71	Z71	X72	Y72	Z72	X73	Y73	Z73	X74	Y74	Z74	

26	30.417	-226.06049	1076.56448	571.43848	-314.77997	1071.90941	382.63176	-162.94504	1103.52638	271.10229	-50.81911	1100.22171	491.19545	-270.60837	1423.80035	465.15026	-182.58204	1509.07776	428.58112	-375.82180	1593.14041	542.40562	-303.12927	1639.02557	397.32960	-210.51899	1625.40741	512.94628	-276.99112	1421.19675	235.04030	-241.91364	1102.42325	146.55031	-204.70303	1086.83716	193.52919	-298.65362	1109.91013	198.47569	-325.04967	870.79803	173.04689	-352.35149	883.46680	207.60118	-320.96405	879.53842	239.22953	-133.09244	1442.87582	603.64815	-79.66888	1124.94774	604.07776	-123.67069	1146.70326	679.45976	-55.73661	1146.11168	668.92754	-201.49786	896.76140	688.52119	-178.76196	888.69827	729.40132	-137.10568	881.75476	709.00108	-208.63911	909.83063	245.76731	-137.85957	903.05191	610.68871	-229.12029	409.83337	351.78581	-163.68277	438.42567	297.44541	-164.15897	433.21934	422.37804	-248.82511	465.79060	674.30893	-147.96129	494.96239	646.22543	-246.95362	455.24563	578.97621	-171.08395	168.74775	356.68049	-147.52733	173.16160	419.79546	-93.65576	167.52865	352.18666	-119.76728	195.12012	667.42119	-72.64699	208.07671	604.17976	-151.00225	196.47089	602.17793	-989.66003	1035.05394	492.63786	-991.10786	1041.46896	652.70836	-1152.49367	1038.61893	658.67165	-1112.31651	1042.56332	477.36626	-1057.27371	1380.44830	583.25645	-1193.80630	1418.25256	566.71448	-993.69415	1587.15347	596.17146	-1144.21852	1561.02661	675.47539	-1139.62296	1565.97031	512.53059	-1156.11801	1348.21808	752.66098	-1133.88901	1054.86557	783.01491	-1190.44785	1046.32042	752.51999	-1121.91566	1044.95056	725.67642	-1105.51193	808.45657	804.59747	-1062.51450	821.73874	804.92912	-1059.08813	821.94237	764.53033	-1077.88162	1357.68814	402.32384	-1106.48537	1046.58386	378.52634	-1039.93309	1054.64272	406.08162	-1062.34055	1053.41919	356.00990	-1016.99615	828.56781	393.99651	-1015.90340	832.10739	351.21361	-973.09265	838.71170	365.74593	-1102.93152	877.38899	743.12141	-1041.74622	891.72318	410.04166	-1043.11584	453.50334	661.45309	-1154.74686	486.00983	695.03616	-1124.10629	484.99947	578.70094	-1014.34677	465.47840	521.69392	-1096.13220	479.34792	424.53156	-1120.70923	476.75648	547.85309	-1108.74069	166.51400	678.19290	-1134.95361	162.30787	609.83818	-1189.45694	152.27880	674.06120	-1067.49573	165.13111	461.56082	-1128.11295	168.22878	425.31410	-1127.16965	171.33175	514.31831 
27	30.433	-226.71503	1076.68922	574.50577	-315.17277	1072.26715	385.57373	-162.96324	1103.74481	274.54226	-51.28539	1100.24269	494.82998	-270.28713	1423.94836	468.39657	-182.49016	1509.23553	432.08759	-375.79456	1593.02795	546.08257	-303.77970	1638.93082	400.74081	-210.47428	1625.93170	515.98946	-276.40841	1421.79916	238.35546	-242.09675	1103.10051	149.25041	-205.14992	1087.31895	196.33577	-299.04617	1110.70320	200.94011	-326.65424	871.85211	175.37636	-353.88119	884.60472	209.73812	-322.59193	880.58350	241.51304	-133.58325	1442.74811	607.39025	-79.52589	1124.85611	606.89880	-123.89447	1146.25496	682.56302	-55.78485	1145.83847	671.92200	-198.43241	894.62967	690.71449	-175.25454	886.84654	731.89911	-133.29440	880.97565	711.32668	-209.03349	910.20744	249.10803	-138.53376	902.77451	613.87650	-229.37677	409.99657	353.39588	-163.84886	438.74332	299.11530	-164.37084	433.10104	423.95752	-247.33053	465.29602	674.92386	-146.11215	493.41850	648.29865	-244.74213	453.94836	580.01446	-171.17916	168.92143	357.24876	-147.76060	172.98574	420.32097	-93.70996	167.65144	352.67128	-122.25264	193.16708	676.20674	-74.11125	204.20620	613.83625	-151.90563	193.40769	609.92264	-989.40514	1035.09727	492.44755	-990.59937	1041.53702	652.43332	-1151.70204	1038.49739	658.44101	-1112.55363	1042.55241	477.67082	-1057.50656	1380.34943	583.05412	-1194.00581	1418.44284	566.51932	-993.62564	1586.73615	596.17920	-1144.24095	1561.03119	675.33989	-1139.58366	1566.11191	512.41848	-1156.17996	1348.12653	752.46452	-1133.81660	1054.82559	782.90611	-1190.39688	1046.26053	752.44240	-1122.00691	1044.84192	725.52475	-1105.29106	808.45367	804.54369	-1062.32269	821.73157	804.91890	-1058.85834	821.90491	764.42619	-1078.25523	1357.58926	402.15317	-1106.73035	1046.49864	378.32855	-1040.14923	1054.55231	405.72926	-1062.71149	1053.29430	355.81917	-1017.18124	828.47595	393.69392	-1016.17813	831.99890	351.03466	-973.30849	838.63701	365.39776	-1102.65053	877.29202	743.14003	-1041.74622	891.72318	410.04166	-1043.21632	453.40958	661.54129	-1154.60991	486.03203	695.06302	-1124.05289	485.00671	578.69881	-1014.57985	465.62897	521.34838	-1096.62193	479.43619	424.19174	-1121.41602	476.89133	547.67658	-1108.67569	166.54186	678.20992	-1134.93729	162.33440	609.83212	-1189.38629	152.30217	674.13795	-1067.66052	165.20605	461.43044	-1128.23967	168.23248	425.13069	-1127.37274	171.38548	514.16435 
28	30.450	-227.49657	1076.82274	577.92667	-315.54480	1072.63329	388.78738	-162.94329	1103.96576	278.15428	-51.80121	1100.16823	498.75748	-270.27769	1423.97003	472.14581	-182.35868	1509.35074	435.85209	-375.72964	1592.93625	549.76856	-304.11123	1638.69095	404.15829	-210.83014	1626.40869	519.25747	-275.67345	1422.34726	241.92888	-242.20297	1103.79005	152.18855	-205.43362	1087.75055	199.33241	-299.26352	1111.66840	203.60729	-328.02097	872.93022	177.82024	-355.32822	885.84007	212.23854	-324.07364	881.68541	243.96780	-133.78448	1442.50595	611.46065	-79.42816	1124.79347	609.95506	-123.64217	1145.52788	685.70305	-55.74056	1145.66223	675.04295	-195.18150	892.58148	693.44391	-171.97279	885.18311	734.76532	-129.65491	879.97864	714.06364	-209.23033	910.63919	252.28443	-139.54778	902.29057	617.54742	-229.45726	410.09537	354.95258	-163.99391	439.07616	300.84761	-164.62717	433.04031	425.65971	-245.49248	464.66606	675.06157	-143.57734	491.81519	650.28572	-241.41993	452.50118	580.67463	-171.24523	169.01897	357.98267	-147.53263	172.69232	420.83584	-93.81418	167.85633	353.27137	-125.05901	191.10819	684.96025	-75.19333	200.27609	623.71151	-153.09503	190.46059	618.05767	-989.05891	1035.13435	492.18704	-990.27054	1041.61354	652.03514	-1151.47148	1038.61397	658.59703	-1112.72522	1042.54662	477.95601	-1057.68013	1380.31326	582.86449	-1194.18159	1418.54889	566.27285	-993.62183	1586.43845	596.26904	-1144.34479	1561.01624	675.16983	-1139.40071	1566.18179	512.17949	-1156.06033	1348.01743	752.40074	-1133.64975	1054.81407	782.84721	-1190.20866	1046.20293	752.35947	-1121.55083	1044.84550	725.32715	-1105.03433	808.43399	804.48288	-1062.12440	821.70273	804.88770	-1058.57445	821.77025	764.32266	-1078.57269	1357.54379	401.92635	-1106.94565	1046.44356	378.15540	-1040.40131	1054.48196	405.48794	-1062.97379	1053.20930	355.58342	-1017.44896	828.38310	393.42075	-1016.47491	831.90178	350.70473	-973.60283	838.56125	364.93488	-1102.18704	877.25494	743.11790	-1041.74622	891.72318	410.04166	-1043.59177	453.27305	661.85036	-1154.47609	486.02890	695.06256	-1124.06364	484.98203	578.70449	-1015.47035	465.46696	521.08059	-1097.04849	479.50668	423.89805	-1122.06581	477.02827	547.60078	-1108.66081	166.54671	678.20686	-1134.96033	162.35947	609.83505	-1189.34990	152.30697	674.17564	-1067.81776	165.28116	461.25481	-1128.37524	168.20551	425.00637	-1127.57042	171.45023	514.05132 
29	30.467	-228.28886	1076.90369	581.60267	-315.99075	1072.99927	392.14905	-163.03623	1104.13132	282.15235	-52.31860	1099.95682	502.93022	-269.73614	1424.06281	475.82184	-182.12172	1509.46320	439.92767	-375.81882	1592.94907	553.50212	-304.47138	1638.71368	407.90306	-210.70745	1626.87912	522.69855	-274.90122	1422.85187	245.66601	-241.92974	1104.43893	155.21601	-205.67299	1088.12698	202.63542	-299.23985	1112.45995	206.58550	-329.31206	873.97919	180.50888	-356.68018	887.00493	214.70020	-325.42801	882.77908	246.58497	-134.14362	1442.32971	615.67482	-79.39297	1124.63234	613.42976	-123.93629	1144.80820	689.31252	-56.00544	1145.41626	678.69240	-191.86054	890.56549	696.48788	-168.79866	883.48198	737.62924	-126.31988	878.79089	717.31514	-209.57705	911.09879	255.98881	-140.48426	901.66534	621.14227	-229.65998	410.12127	356.68941	-164.12102	439.47044	302.69449	-164.97734	432.96745	427.52499	-243.51826	463.52734	674.75052	-140.88290	490.01839	652.69073	-236.59100	451.19339	580.66113	-171.35769	169.15953	358.52119	-147.89113	172.59029	421.66042	-93.97409	168.01992	353.99845	-128.72310	189.15890	693.67424	-76.55460	196.08425	634.25220	-154.27954	187.58741	625.73528	-988.82889	1035.12222	491.97311	-990.01945	1041.53709	651.55991	-1150.98862	1038.59901	658.57246	-1112.82104	1042.57484	478.10509	-1057.68814	1380.33432	582.60090	-1194.22707	1418.56720	566.01429	-993.67294	1586.23871	596.33728	-1144.52744	1560.99426	675.00534	-1139.28528	1566.18866	511.97430	-1155.97145	1347.97089	752.24197	-1133.45009	1054.75540	782.70706	-1190.21935	1046.21460	752.36626	-1121.21567	1044.89136	725.22018	-1104.76051	808.41141	804.43130	-1061.89476	821.67114	804.86198	-1058.43590	821.75331	764.23927	-1078.84544	1357.49573	401.64444	-1107.17613	1046.40343	378.01121	-1040.60936	1054.43993	405.23830	-1063.18520	1053.18039	355.35805	-1017.77573	828.32657	393.18676	-1016.84204	831.82053	350.52303	-973.92349	838.48831	364.57527	-1101.69601	877.26395	743.05252	-1041.74622	891.72318	410.04166	-1043.63052	453.21743	661.78726	-1154.37332	486.05904	695.05112	-1124.07494	485.00877	578.67481	-1015.88745	465.50282	520.78205	-1097.56165	479.57554	423.63579	-1122.42043	477.01267	547.18708	-1108.62083	166.55628	678.18192	-1134.99527	162.35783	609.83513	-1189.31381	152.34334	674.22180	-1067.99400	165.34004	461.16016	-1128.47679	168.19334	424.89056	-1127.70851	171.47619	513.96748 
30	30.483	-229.18865	1076.89682	585.54100	-316.48640	1073.38844	395.72536	-162.97594	1104.24385	286.36574	-52.91838	1099.65034	507.49069	-269.35673	1423.76678	479.71352	-181.83506	1509.43893	444.16958	-375.67669	1593.05923	557.30419	-304.57396	1638.50693	411.53503	-210.84747	1627.05765	526.40736	-273.92595	1423.22052	249.70308	-241.64846	1104.93790	158.61076	-205.65126	1088.41576	206.06611	-299.21425	1113.20824	209.46308	-330.31883	874.95659	183.28690	-357.87994	888.20602	217.25025	-326.67099	883.77693	249.32043	-134.61440	1442.01965	620.17006	-79.44440	1124.40147	617.19398	-124.04527	1144.16229	693.05244	-56.13436	1145.10193	682.46605	-188.80920	888.60008	699.86946	-165.67554	881.85341	741.01028	-122.96652	877.62993	720.92842	-209.93073	911.63185	259.84587	-141.55627	900.90584	624.98272	-230.46339	410.30800	357.59941	-164.47441	439.79717	304.55439	-165.19491	432.75810	429.41036	-241.28283	462.20123	673.92052	-137.88681	488.35064	655.29610	-231.49242	449.42196	580.75172	-171.46648	169.26357	359.11991	-148.18962	172.49788	422.24251	-94.14208	168.23168	354.69219	-132.76229	187.15790	701.81305	-77.64518	192.21159	643.99536	-155.65117	184.94558	632.84752	-988.60802	1035.10757	491.80771	-989.61609	1041.41174	651.55991	-1150.67047	1038.65982	658.58398	-1112.88322	1042.57523	478.22506	-1057.64915	1380.35980	582.36015	-1194.19800	1418.59573	565.75001	-993.70079	1586.17722	596.36017	-1144.77463	1560.97794	674.78996	-1139.12613	1566.27350	511.71299	-1155.73975	1347.93442	752.05444	-1133.03955	1054.72137	782.55539	-1189.88388	1046.11397	752.18918	-1121.03912	1044.76341	725.09521	-1104.33891	808.34236	804.28558	-1061.46362	821.61537	804.71016	-1058.10005	821.76376	764.16321	-1078.98903	1357.43011	401.31069	-1107.36359	1046.37360	377.79751	-1040.72746	1054.39262	404.88968	-1063.14224	1053.08525	354.81358	-1018.11180	828.26889	392.90482	-1017.22450	831.75018	350.25890	-974.22928	838.41110	364.05693	-1101.70357	876.91132	742.77687	-1041.74622	891.72318	410.04166	-1043.57941	453.19374	661.60629	-1154.29169	486.09795	694.99580	-1124.11377	485.04486	578.62240	-1016.36810	465.48687	520.52536	-1098.00507	479.63627	423.30727	-1122.86995	477.13081	546.85249	-1108.39302	166.50829	678.00827	-1135.01869	162.39241	609.80106	-1189.25331	152.40329	674.24622	-1068.13751	165.40930	461.05679	-1128.55545	168.17736	424.77055	-1127.83089	171.48363	513.87024 
